<?xml version="1.0" encoding="utf-8"?>
<!-- Generator: Adobe Illustrator 16.0.0, SVG Export Plug-In . SVG Version: 6.00 Build 0)  -->
<!DOCTYPE svg PUBLIC "-//W3C//DTD SVG 1.1//EN" "http://www.w3.org/Graphics/SVG/1.1/DTD/svg11.dtd">
<svg version="1.1" id="Capa_1" xmlns="http://www.w3.org/2000/svg" xmlns:xlink="http://www.w3.org/1999/xlink" x="0px" y="0px"
	 width="312.751px" height="85.906px" viewBox="0 0 312.751 85.906" enable-background="new 0 0 312.751 85.906"
	 xml:space="preserve">
<g>
	<g>
		<g>
			<path fill="#F18738" d="M310.371,35.24c0,5.761,0,11.521,0,17.28c-0.836,0.595-0.621,1.585-0.82,2.384
				c-3.48,13.966-12.137,22.954-25.879,27.131c-1.49,0.453-3.133,0.313-4.502,1.205c-81.6,0-163.199,0-244.799,0
				c-0.435-0.779-1.274-0.545-1.92-0.703C17.39,78.855,8.042,69.493,4.353,54.44c-0.159-0.646,0.077-1.485-0.703-1.92
				c0-5.92,0-11.84,0-17.76c0.835-0.595,0.622-1.586,0.821-2.384C7.954,18.407,16.618,9.418,30.36,5.244
				c1.335-0.406,2.831-0.284,4.011-1.203c81.6,0,163.199,0,244.799,0c0.318,0.657,0.967,0.411,1.475,0.521
				c14.625,3.153,24.143,11.854,28.523,26.178C309.623,32.228,309.484,33.872,310.371,35.24z M156.836,82.255
				c38.956,0,77.913,0.023,116.87-0.012c15.994-0.015,29.617-9.765,34.033-24.632c2.598-8.745,2.596-17.772,0.355-26.562
				c-4.039-15.848-17.9-26.014-34.879-26.02c-61.035-0.018-122.07-0.008-183.105-0.006c-17.039,0-34.078-0.104-51.115,0.053
				C23.939,5.214,10.422,15.372,6.245,29.785c-2.536,8.752-2.559,17.771-0.286,26.562c4.023,15.567,17.825,25.876,34.248,25.894
				C79.083,82.284,117.96,82.254,156.836,82.255z"/>
			<path fill-rule="evenodd" clip-rule="evenodd" fill="none" d="M310.371,35.24c-0.887-1.368-0.748-3.012-1.203-4.501
				c-4.381-14.323-13.898-23.024-28.523-26.178c-0.508-0.109-1.156,0.137-1.475-0.521c9.922,0,19.842,0.023,29.762-0.032
				c1.199-0.007,1.479,0.271,1.471,1.472C310.345,15.4,310.371,25.32,310.371,35.24z"/>
			<path fill-rule="evenodd" clip-rule="evenodd" fill="none" d="M279.169,83.24c1.369-0.892,3.012-0.752,4.502-1.205
				c13.742-4.177,22.398-13.165,25.879-27.131c0.199-0.799-0.016-1.789,0.82-2.384c0,9.76-0.025,19.521,0.031,29.28
				c0.008,1.2-0.271,1.479-1.471,1.472C299.011,83.215,289.091,83.24,279.169,83.24z"/>
			<path fill-rule="evenodd" clip-rule="evenodd" fill="none" d="M34.371,4.041c-1.18,0.919-2.675,0.797-4.011,1.203
				C16.618,9.418,7.954,18.407,4.471,32.376c-0.199,0.798,0.015,1.789-0.821,2.384C3.65,25,3.675,15.24,3.619,5.48
				C3.612,4.28,3.89,4.001,5.091,4.008C14.85,4.065,24.61,4.041,34.371,4.041z"/>
			<path fill-rule="evenodd" clip-rule="evenodd" fill="none" d="M3.65,52.52c0.78,0.435,0.544,1.273,0.703,1.92
				C8.042,69.493,17.39,78.855,32.45,82.537c0.646,0.158,1.486-0.076,1.92,0.703c-9.722,0-19.444-0.032-29.166,0.039
				c-1.328,0.01-1.603-0.266-1.593-1.593C3.683,71.964,3.65,62.242,3.65,52.52z"/>
			<path fill-rule="evenodd" clip-rule="evenodd" fill="none" d="M156.836,82.255c-38.876-0.001-77.753,0.028-116.63-0.015
				C23.784,82.223,9.982,71.915,5.959,56.347c-2.273-8.792-2.25-17.811,0.286-26.562c4.177-14.413,17.694-24.57,32.75-24.707
				c17.037-0.156,34.077-0.053,51.115-0.053c61.035-0.002,122.07-0.012,183.105,0.006c16.979,0.006,30.84,10.172,34.879,26.02
				c2.24,8.789,2.242,17.816-0.355,26.562c-4.416,14.867-18.039,24.617-34.033,24.632C234.75,82.279,195.792,82.255,156.836,82.255z
				"/>
		</g>
	</g>
</g>
</svg>
