<?xml version="1.0" encoding="iso-8859-1"?>
<!-- Generator: Adobe Illustrator 16.0.4, SVG Export Plug-In . SVG Version: 6.00 Build 0)  -->
<!DOCTYPE svg PUBLIC "-//W3C//DTD SVG 1.1//EN" "http://www.w3.org/Graphics/SVG/1.1/DTD/svg11.dtd">
<svg version="1.1" id="circulos" xmlns="http://www.w3.org/2000/svg" xmlns:xlink="http://www.w3.org/1999/xlink" x="0px" y="0px"
	 width="384px" height="384px" viewBox="0 0 384 384" style="enable-background:new 0 0 384 384;" xml:space="preserve">
<g>
	<path style="fill:#D4D4CC;" d="M192,313.13c-66.828,0-121.196-54.369-121.196-121.197c0-66.828,54.368-121.196,121.196-121.196
		c66.827,0,121.196,54.368,121.196,121.196C313.196,258.761,258.827,313.13,192,313.13z M192,78.132
		c-62.75,0-113.801,51.051-113.801,113.801S129.25,305.734,192,305.734s113.801-51.051,113.801-113.801S254.75,78.132,192,78.132z"
		/>
</g>
<g>
	<path style="fill:#D4D4CC;" d="M192,382.767c-105.226,0-190.833-85.607-190.833-190.833C1.167,86.708,86.774,1.1,192,1.1
		s190.833,85.607,190.833,190.833C382.833,297.159,297.226,382.767,192,382.767z M192,35.61
		c-86.196,0-156.323,70.126-156.323,156.323S105.804,348.256,192,348.256c86.197,0,156.322-70.126,156.322-156.323
		S278.197,35.61,192,35.61z"/>
</g>
</svg>
