<?xml version="1.0" encoding="utf-8"?>
<!-- Generator: Adobe Illustrator 16.0.0, SVG Export Plug-In . SVG Version: 6.00 Build 0)  -->
<!DOCTYPE svg PUBLIC "-//W3C//DTD SVG 1.1//EN" "http://www.w3.org/Graphics/SVG/1.1/DTD/svg11.dtd">
<svg version="1.1" id="Capa_1" xmlns="http://www.w3.org/2000/svg" xmlns:xlink="http://www.w3.org/1999/xlink" x="0px" y="0px"
	 width="79px" height="76.167px" viewBox="0 0.833 79 76.167" enable-background="new 0 0.833 79 76.167" xml:space="preserve">
<g id="fb" display="none">
	<path display="inline" fill="#D2D2D2" d="M36.261,59.688V39.984h-6.612v-4.858h6.612v-7.043c0-2.783,0.796-5.053,2.32-6.559
		c1.464-1.448,3.622-2.213,6.19-2.213c1.807,0,3.365,0.09,4.58,0.175v4.276H46.59c-5.146,0-5.199,3.821-5.199,5.077v6.287h7.455
		l-0.64,4.858h-6.815v19.705h-5.129V59.688L36.261,59.688z"/>
	<path display="inline" fill="#D2D2D2" d="M6.328,39.5c0-18.293,14.879-33.172,33.172-33.172S72.672,21.207,72.672,39.5
		c0,18.293-14.883,33.172-33.172,33.172C21.207,72.672,6.328,57.793,6.328,39.5 M77,39.5C77,18.824,60.176,2,39.5,2
		C18.82,2,2,18.824,2,39.5C2,60.176,18.82,77,39.5,77C60.176,77,77,60.176,77,39.5"/>
</g>
<g id="twt">
	<path fill="#D4D3CB" d="M24.249,54.047c2.498,0.867,5.138,1.314,7.823,1.314c6.494,0,12.481-2.393,16.858-6.734
		c4.502-4.467,6.979-10.745,6.979-17.683c0-3.449-3.125-7.307-7.308-7.307c-4.025,0-7.307,3.28-7.307,7.307
		c0,0.511,0.053,1.019,0.157,1.515c0.091,0.432-0.021,0.879-0.298,1.221c-0.278,0.341-0.688,0.548-1.139,0.534
		c-0.398-0.003-9.309-0.165-17.478-8.003c-0.506,1.992-0.572,5.188,2.852,7.808c0.483,0.369,0.678,0.999,0.503,1.578
		c-0.174,0.581-0.698,0.993-1.304,1.034c0,0-0.087,0.005-0.243,0.005c-0.367,0-1.032-0.031-1.831-0.21
		c0.521,1.74,1.919,4.066,5.639,5.136c0.647,0.188,1.084,0.793,1.052,1.467c-0.031,0.672-0.521,1.238-1.184,1.363
		c-0.04,0.006-0.783,0.145-1.725,0.205c0.949,1.328,2.694,2.857,5.753,3.043c0.577,0.035,1.08,0.406,1.28,0.951
		c0.199,0.543,0.06,1.152-0.357,1.553C30.479,52.543,27.132,53.604,24.249,54.047 M32.072,58.275
		c-5.148,0-10.149-1.467-14.457-4.244c-0.567-0.365-0.81-1.074-0.585-1.711c0.225-0.637,0.857-1.035,1.53-0.961
		c0.005,0,0.677,0.07,1.727,0.07c2.01,0,5.31-0.25,8.126-1.637c-3.671-1.459-5.463-4.635-5.939-6.469
		c-0.124-0.475,0.002-0.977,0.326-1.34c-2.935-2.518-3.631-5.975-3.487-7.919c0.038-0.509,0.339-0.961,0.792-1.191
		c0.121-0.063,0.25-0.106,0.382-0.132c-2.036-3.807-0.923-7.874,0.27-9.904c0.235-0.399,0.648-0.662,1.108-0.71
		c0.46-0.048,0.918,0.129,1.228,0.473c4.003,4.424,8.387,6.554,11.358,7.557c1.584,0.536,2.949,0.82,3.935,0.971
		c0-0.063-0.003-0.124-0.003-0.187c0-5.636,4.584-10.22,10.221-10.22c5.444,0,10.22,4.776,10.22,10.22
		C58.822,46.527,47.322,58.275,32.072,58.275"/>
	<path fill="#D4D3CB" d="M56.68,28.99c-0.49,0-0.966-0.245-1.242-0.693c-0.422-0.685-0.207-1.583,0.479-2.002
		c0.203-0.127,0.399-0.261,0.59-0.402c-0.481,0.126-0.978,0.232-1.481,0.305c-0.797,0.122-1.535-0.432-1.653-1.229
		c-0.116-0.797,0.433-1.535,1.229-1.654c2.674-0.394,5.195-1.967,5.222-1.982c0.519-0.329,1.188-0.294,1.671,0.083
		s0.681,1.016,0.49,1.6c-0.778,2.39-2.393,4.433-4.541,5.756C57.204,28.92,56.939,28.99,56.68,28.99"/>
	<path fill="#D4D3CB" d="M57.368,33.625c-0.448,0-0.89-0.205-1.175-0.592c-0.478-0.647-0.338-1.56,0.31-2.035
		c0.048-0.035,0.093-0.071,0.142-0.107c-0.236-0.212-0.41-0.5-0.471-0.839c-0.139-0.791,0.393-1.547,1.184-1.686
		c1.629-0.286,2.438-0.789,2.445-0.795c0.581-0.369,1.35-0.282,1.83,0.211c0.48,0.492,0.557,1.248,0.172,1.823
		c-0.971,1.443-2.174,2.7-3.574,3.736C57.969,33.531,57.668,33.625,57.368,33.625"/>
	<path fill="#D4D3CB" d="M6.328,39.5c0-18.293,14.879-33.172,33.172-33.172S72.672,21.207,72.672,39.5
		c0,18.293-14.883,33.172-33.172,33.172C21.207,72.672,6.328,57.793,6.328,39.5 M77,39.5C77,18.824,60.176,2,39.5,2
		C18.82,2,2,18.824,2,39.5C2,60.176,18.82,77,39.5,77C60.176,77,77,60.176,77,39.5"/>
</g>
</svg>
