<?xml version="1.0" encoding="utf-8"?>
<!-- Generator: Adobe Illustrator 16.0.0, SVG Export Plug-In . SVG Version: 6.00 Build 0)  -->
<!DOCTYPE svg PUBLIC "-//W3C//DTD SVG 1.1//EN" "http://www.w3.org/Graphics/SVG/1.1/DTD/svg11.dtd">
<svg version="1.1" id="Capa_1" xmlns="http://www.w3.org/2000/svg" xmlns:xlink="http://www.w3.org/1999/xlink" x="0px" y="0px"
	 width="384px" height="384px" viewBox="0 0 384 384" enable-background="new 0 0 384 384" xml:space="preserve">
<g id="circulos" display="none">
	<g display="inline">
		<path fill="#D4D4CC" d="M191.434,313.122c-66.827-0.323-120.931-54.956-120.608-121.781
			c0.323-66.828,54.953-120.932,121.78-120.609c66.826,0.323,120.933,54.954,120.607,121.781
			C312.892,259.34,258.261,313.445,191.434,313.122z M192.571,78.126c-62.749-0.304-114.046,50.5-114.35,113.25
			c-0.305,62.75,50.499,114.047,113.248,114.351c62.751,0.305,114.047-50.499,114.35-113.249
			C306.124,129.729,255.32,78.431,192.571,78.126z"/>
	</g>
	<g display="inline">
		<path fill="#D4D4CC" d="M191.097,382.759C85.872,382.249,0.68,296.229,1.189,191.005C1.699,85.78,87.72,0.587,192.944,1.096
			C298.169,1.605,383.362,87.625,382.852,192.85C382.343,298.075,296.322,383.268,191.097,382.759z M192.777,35.604
			C106.582,35.188,36.116,104.974,35.7,191.17c-0.417,86.196,69.37,156.66,155.565,157.078
			c86.196,0.417,156.659-69.368,157.077-155.565C348.759,106.488,278.975,36.022,192.777,35.604z"/>
	</g>
</g>
<g id="flecha">
	<polygon fill="#F0832F" points="177.458,128.783 192.45,103.105 207.192,128.927 	"/>
</g>
<g id="franja">
	<path fill="#EF8F4D" d="M284.512,65.956L284.512,65.956l20.425-27.814l0,0C236.705-11.964,145.921-9.886,80.6,36.997l20.143,28.022
		C154.251,26.615,228.62,24.912,284.512,65.956z"/>
</g>
<polygon display="none" fill="#F0832F" points="177.133,194.859 192,169.11 206.867,194.859 "/>
</svg>
